<svg width="30" height="30" viewBox="0 0 126 126" fill="none" xmlns="http://www.w3.org/2000/svg">
<g clip-path="url(#clip0_128_70)">
<path d="M24.7041 0.0314941C11.1317 0.0314941 0.0235596 11.1394 0.0235596 24.712V101.3C0.0235596 114.872 11.1315 125.976 24.7041 125.976H101.292C114.865 125.976 125.968 114.872 125.968 101.3V24.712C125.968 11.1397 114.865 0.0314941 101.292 0.0314941H24.7041ZM30.9116 20.8149C37.4192 20.8149 41.4277 25.0871 41.5514 30.7028C41.5514 36.1945 37.419 40.5867 30.7857 40.5867H30.6636C24.2798 40.5867 20.1537 36.1948 20.1537 30.7028C20.1537 25.0872 24.4047 20.8149 30.9115 20.8149H30.9116ZM86.9917 47.062C99.5071 47.062 108.889 55.2422 108.889 72.8209V105.638H89.8691V75.0211C89.8691 67.3276 87.1164 62.0787 80.2331 62.0787C74.9784 62.0787 71.8463 65.6165 70.4712 69.0341C69.9688 70.2568 69.8453 71.9645 69.8453 73.675V105.638H50.8252C50.8252 105.638 51.0749 53.7743 50.8252 48.4042H69.8492V56.509C72.3768 52.6093 76.8979 47.0619 86.9917 47.0619V47.062ZM21.2756 48.4083H40.2957V105.638H21.2756V48.4083Z" fill="#F0E3CA"/>
</g>
<defs>
<clipPath id="clip0_128_70">
<rect width="126" height="126" fill="white"/>
</clipPath>
</defs>
</svg>
